M48
;DRILL file {KiCad 4.0.4+e1-6308~48~ubuntu16.04.1-stable} date Fri Oct 14 11:36:01 2016
;FORMAT={-:-/ absolute / metric / decimal}
FMAT,2
METRIC,TZ
T1C0.400
T2C0.700
T3C0.762
T4C0.800
T5C1.001
T6C1.100
T7C1.270
%
G90
G05
M71
T1
X62.865Y-61.595
X62.865Y-71.755
X65.405Y-43.815
X65.405Y-51.435
X65.405Y-61.595
X67.945Y-33.655
X67.945Y-38.735
X84.455Y-61.595
X89.535Y-45.085
X89.535Y-51.435
X102.87Y-63.5
X110.49Y-63.5
T2
X34.925Y-45.125
X34.925Y-47.625
T3
X23.495Y-36.195
X23.495Y-41.275
X23.495Y-46.355
X23.495Y-51.435
X29.845Y-31.115
X29.845Y-41.275
X52.705Y-41.275
X52.705Y-56.515
X55.245Y-41.275
X55.245Y-51.435
X55.245Y-53.975
X55.245Y-56.515
X57.785Y-38.735
X57.785Y-41.275
X57.785Y-51.435
X57.785Y-53.975
X57.785Y-56.515
X60.325Y-38.735
X60.325Y-41.275
X60.325Y-51.435
X60.325Y-53.975
X60.325Y-56.515
X62.865Y-38.735
X62.865Y-41.275
X62.865Y-56.515
X65.405Y-38.735
X65.405Y-41.275
X65.405Y-56.515
X67.945Y-41.275
X67.945Y-56.515
X70.485Y-15.875
X70.485Y-19.685
X70.485Y-22.225
X70.485Y-24.765
X70.485Y-41.275
X70.485Y-56.515
X70.485Y-66.675
X73.025Y-15.875
X73.025Y-66.675
X74.295Y-41.275
X74.295Y-56.515
X75.565Y-15.875
X75.565Y-66.675
X76.835Y-41.275
X76.835Y-51.435
X76.835Y-53.975
X76.835Y-56.515
X78.105Y-15.875
X78.105Y-19.685
X78.105Y-22.225
X78.105Y-66.675
X79.375Y-38.735
X79.375Y-41.275
X79.375Y-51.435
X79.375Y-53.975
X79.375Y-56.515
X80.645Y-15.875
X80.645Y-66.675
X81.915Y-38.735
X81.915Y-41.275
X81.915Y-51.435
X81.915Y-53.975
X81.915Y-56.515
X83.185Y-15.875
X83.185Y-66.675
X84.455Y-38.735
X84.455Y-41.275
X84.455Y-56.515
X85.725Y-66.675
X86.995Y-38.735
X86.995Y-41.275
X86.995Y-56.515
X88.265Y-15.875
X88.265Y-66.675
X89.535Y-41.275
X89.535Y-56.515
X89.535Y-69.215
X89.535Y-71.755
X89.535Y-74.295
X90.805Y-15.875
X92.075Y-41.275
X92.075Y-56.515
X92.075Y-66.675
X93.345Y-15.875
X94.615Y-66.675
X94.615Y-69.215
X94.615Y-71.755
X94.615Y-74.295
X95.885Y-15.875
X97.155Y-41.275
X97.155Y-56.515
X97.155Y-66.675
X98.425Y-15.875
X99.695Y-41.275
X99.695Y-51.435
X99.695Y-53.975
X99.695Y-56.515
X99.695Y-66.675
X99.695Y-69.215
X99.695Y-71.755
X99.695Y-74.295
X100.965Y-15.875
X102.235Y-36.195
X102.235Y-38.735
X102.235Y-41.275
X102.235Y-51.435
X102.235Y-53.975
X102.235Y-56.515
X102.235Y-66.675
X103.505Y-15.875
X104.775Y-36.195
X104.775Y-38.735
X104.775Y-41.275
X104.775Y-51.435
X104.775Y-53.975
X104.775Y-56.515
X104.775Y-66.675
X106.045Y-15.875
X107.315Y-36.195
X107.315Y-38.735
X107.315Y-41.275
X107.315Y-56.515
X107.315Y-66.675
X109.855Y-36.195
X109.855Y-38.735
X109.855Y-41.275
X109.855Y-56.515
X109.855Y-66.675
X112.395Y-41.275
X112.395Y-56.515
X112.395Y-66.675
X114.935Y-41.275
X114.935Y-56.515
X114.935Y-66.675
T4
X41.275Y-45.085
X41.275Y-47.085
X48.895Y-45.085
X48.895Y-47.585
X71.755Y-45.085
X71.755Y-47.585
X97.155Y-46.355
X97.155Y-48.855
T5
X34.925Y-24.768
X45.088Y-32.385
T6
X92.075Y-22.075
X92.075Y-28.575
X96.575Y-22.075
X96.575Y-28.575
T7
X24.765Y-24.768
X45.088Y-42.545
T0
M30
